HIERARCHY
ROOT Hips
{
	OFFSET 0.000000 0.000000 0.000000
	CHANNELS 6 Xposition Yposition Zposition Zrotation Yrotation Xrotation 
	JOINT LHipJoint
	{
		OFFSET 0.000000 0.000000 0.000000
		CHANNELS 3 Zrotation Yrotation Xrotation
		JOINT LeftUpLeg
		{
			OFFSET 1.363060 -1.794630 0.839290
			CHANNELS 3 Zrotation Yrotation Xrotation
			JOINT LeftLeg
			{
				OFFSET 2.448110 -6.726130 0.000000
				CHANNELS 3 Zrotation Yrotation Xrotation
				JOINT LeftFoot
				{
					OFFSET 2.562200 -7.039590 0.000000
					CHANNELS 3 Zrotation Yrotation Xrotation
					JOINT LeftToeBase
					{
						OFFSET 0.157640 -0.433110 2.322550
						CHANNELS 3 Zrotation Yrotation Xrotation
						End Site
						{
							OFFSET 0.000000 0.000000 0.000000
						}
					}
				}
			}
		}
	}
	JOINT RHipJoint
	{
		OFFSET 0.000000 0.000000 0.000000
		CHANNELS 3 Zrotation Yrotation Xrotation
		JOINT RightUpLeg
		{
			OFFSET -1.305520 -1.794630 0.839290
			CHANNELS 3 Zrotation Yrotation Xrotation
			JOINT RightLeg
			{
				OFFSET -2.542530 -6.985550 0.000000
				CHANNELS 3 Zrotation Yrotation Xrotation
				JOINT RightFoot
				{
					OFFSET -2.568260 -7.056230 0.000000
					CHANNELS 3 Zrotation Yrotation Xrotation
					JOINT RightToeBase
					{
						OFFSET -0.164730 -0.452590 2.363150
						CHANNELS 3 Zrotation Yrotation Xrotation
						End Site
						{
							OFFSET 0.000000 0.000000 0.000000
						}
					}
				}
			}
		}
	}
	JOINT LowerBack
	{
		OFFSET 0.000000 0.000000 0.000000
		CHANNELS 3 Zrotation Yrotation Xrotation
		JOINT Spine
		{
			OFFSET 0.028270 2.035590 -0.193380
			CHANNELS 3 Zrotation Yrotation Xrotation
			JOINT Spine1
			{
				OFFSET 0.056720 2.048850 -0.042750
				CHANNELS 3 Zrotation Yrotation Xrotation
				JOINT Neck
				{
					OFFSET 0.000000 0.000000 0.000000
					CHANNELS 3 Zrotation Yrotation Xrotation
					JOINT Neck1
					{
						OFFSET -0.054170 1.746240 0.172020
						CHANNELS 3 Zrotation Yrotation Xrotation
						JOINT Head
						{
							OFFSET 0.104070 1.761360 -0.123970
							CHANNELS 3 Zrotation Yrotation Xrotation
							End Site
							{
								OFFSET 0.000000 0.000000 0.000000
							}
						}
					}
				}
				JOINT LeftShoulder
				{
					OFFSET 0.000000 0.000000 0.000000
					CHANNELS 3 Zrotation Yrotation Xrotation
					JOINT LeftArm
					{
						OFFSET 3.362410 1.200890 -0.311210
						CHANNELS 3 Zrotation Yrotation Xrotation
						JOINT LeftForeArm
						{
							OFFSET 4.983000 -0.000000 -0.000000
							CHANNELS 3 Zrotation Yrotation Xrotation
							JOINT LeftHand
							{
								OFFSET 3.483560 -0.000000 -0.000000
								CHANNELS 3 Zrotation Yrotation Xrotation
								JOINT LeftFingerBase
								{
									OFFSET 0.000000 0.000000 0.000000
									CHANNELS 3 Zrotation Yrotation Xrotation
									JOINT LeftHandIndex1
									{
										OFFSET 0.715260 -0.000000 -0.000000
										CHANNELS 3 Zrotation Yrotation Xrotation
										End Site
										{
											OFFSET 0.000000 0.000000 0.000000
										}
									}
								}
								JOINT LThumb
								{
									OFFSET 0.000000 0.000000 0.000000
									CHANNELS 3 Zrotation Yrotation Xrotation
									End Site
									{
										OFFSET 0.000000 0.000000 0.000000
									}
								}
							}
						}
					}
				}
				JOINT RightShoulder
				{
					OFFSET 0.000000 0.000000 0.000000
					CHANNELS 3 Zrotation Yrotation Xrotation
					JOINT RightArm
					{
						OFFSET -3.136600 1.374050 -0.404650
						CHANNELS 3 Zrotation Yrotation Xrotation
						JOINT RightForeArm
						{
							OFFSET -5.241900 -0.000000 -0.000000
							CHANNELS 3 Zrotation Yrotation Xrotation
							JOINT RightHand
							{
								OFFSET -3.444170 -0.000000 -0.000000
								CHANNELS 3 Zrotation Yrotation Xrotation
								JOINT RightFingerBase
								{
									OFFSET 0.000000 0.000000 0.000000
									CHANNELS 3 Zrotation Yrotation Xrotation
									JOINT RightHandIndex1
									{
										OFFSET -0.622530 -0.000000 -0.000000
										CHANNELS 3 Zrotation Yrotation Xrotation
										End Site
										{
											OFFSET 0.000000 0.000000 0.000000
										}
									}
								}
								JOINT RThumb
								{
									OFFSET 0.000000 0.000000 0.000000
									CHANNELS 3 Zrotation Yrotation Xrotation
									End Site
									{
										OFFSET 0.000000 0.000000 0.000000
									}
								}
							}
						}
					}
				}
			}
		}
	}
}
MOTION
Frames: 8
Frame Time: 0.008333
-42.812645 17.494062 1.457480 -166.002155 73.863193 -160.701872 19.780056 3.156575 -1.941522 -36.538584 -30.567501 12.236157 -12.109140 -1.235675 0.129224 1.805814 -8.531690 -22.616602 1.321700 -7.281000 -20.550700 -24.760009 -3.722362 -3.746142 54.594399 23.239001 21.402817 14.766814 5.397677 -6.996939 -7.880787 -12.502473 -54.125169 -2.479100 -9.799900 28.331000 8.234325 4.079969 12.917419 -0.817083 7.965410 -5.786974 -11.697037 1.965503 -17.505643 13.705804 5.990061 -19.506878 1.944332 7.607975 24.472895 -2.089400 6.065600 18.730200 8.085302 -7.001387 0.783664 -75.325386 13.640317 41.606570 22.478676 -34.643250 -7.603743 0.633398 2.568881 0.970861 46.611976 39.061362 31.245200 -7.125000 0.000000 0.000000 24.837500 74.811900 17.713100 -10.155367 7.605876 2.498357 93.608217 -21.609166 25.641829 -19.462427 35.964587 -5.339282 0.051913 -4.171341 -11.745546 -24.341538 -26.221680 9.257000 7.125000 0.000000 0.000000 5.397900 -53.532100 -1.135200 
-42.810817 17.493310 1.463717 -166.201464 74.093176 -160.813997 19.787124 3.130495 -1.938938 -36.555894 -30.499833 11.982920 -12.095868 -1.125162 0.292958 1.772365 -8.874079 -22.455473 1.104000 -6.676200 -18.759700 -24.735320 -3.699703 -3.705766 54.492777 23.468836 21.390264 14.741743 5.408850 -7.014443 -7.882582 -12.355756 -54.087668 -2.489300 -9.818300 28.390400 8.460329 4.033399 13.208939 -1.027233 8.041513 -5.887135 -12.515096 1.837152 -17.813837 13.793834 5.943248 -19.567807 2.395133 7.410090 24.435846 -1.815300 6.032000 18.631200 7.983940 -6.992123 0.798728 -74.415124 13.829983 42.435624 22.740113 -34.664582 -7.548830 0.420787 2.603953 0.465079 42.328135 37.734766 26.981200 -7.125000 0.000000 0.000000 15.652500 72.109900 10.159600 -10.197829 7.653347 2.504174 94.291285 -21.658913 25.504281 -19.400723 36.072896 -5.324344 0.040323 -4.209594 -11.806081 -24.367686 -26.233740 9.250000 7.125000 0.000000 0.000000 5.386700 -53.509700 -1.129800 
-42.807268 17.493632 1.465652 -166.690507 74.258964 -161.152353 19.815749 3.105947 -1.935461 -36.679338 -30.480174 11.778875 -12.101757 -1.073329 0.317305 1.749749 -8.969129 -22.429903 1.042600 -6.493800 -18.224200 -24.684789 -3.676625 -3.674589 54.265081 23.658216 21.296236 14.710046 5.401851 -7.011205 -7.879796 -12.252568 -54.074599 -2.513500 -9.862500 28.532500 8.665355 3.934460 13.392849 -1.213641 8.013509 -5.954497 -13.227685 1.689285 -17.988201 13.898343 6.002382 -19.785794 2.614428 7.366393 24.412894 -1.670300 6.029800 18.633400 7.916212 -6.987053 0.816666 -73.743603 13.864201 42.909100 22.879134 -34.592989 -7.442813 0.236715 2.624145 0.150857 38.414074 36.277551 23.252600 -7.125000 0.000000 0.000000 9.219300 69.365600 5.395200 -10.226038 7.678360 2.507507 94.784652 -21.638476 25.623717 -19.447845 36.249659 -5.338991 0.040230 -4.236438 -11.907032 -24.374180 -26.239328 9.239900 7.125000 0.000000 0.000000 5.385800 -53.487900 -1.126800 
-42.800601 17.491482 1.464685 -167.019054 74.349775 -161.390064 19.846365 3.087705 -1.932516 -36.830986 -30.509075 11.734241 -12.106467 -1.084193 0.249679 1.744156 -9.162820 -22.505555 0.973100 -6.280000 -17.599000 -24.658202 -3.666567 -3.657131 54.133485 23.756015 21.268216 14.708630 5.416644 -7.040059 -7.806027 -12.643433 -53.947972 -2.430800 -9.710900 28.045600 8.979891 3.755878 13.549310 -1.351995 7.870149 -5.977964 -13.836442 1.502013 -18.051709 13.969234 6.177246 -19.987029 2.685790 7.517768 24.327644 -1.597500 6.070100 18.616100 7.883382 -6.997338 0.844324 -73.353328 13.950660 42.791417 23.037404 -34.557659 -7.343668 0.069241 2.629683 0.179295 34.544470 34.686118 19.787600 -7.125000 0.000000 0.000000 4.092200 66.562100 2.128400 -10.246125 7.683615 2.508103 95.120002 -21.522354 25.826100 -19.488306 36.391976 -5.351084 0.025060 -4.248422 -11.823532 -24.418827 -26.119249 9.202600 7.125000 0.000000 0.000000 5.309300 -53.356100 -1.093600 
-42.790816 17.489331 1.463502 -167.148801 74.444889 -161.495882 19.870760 3.080059 -1.932075 -36.928584 -30.405566 11.681041 -12.125561 -1.091833 0.208654 1.733154 -9.023256 -22.510815 0.915300 -6.095700 -17.062400 -24.643938 -3.662200 -3.633527 54.093227 23.831559 21.313541 14.705882 5.436455 -7.062485 -7.779404 -12.741263 -53.875979 -2.415400 -9.682500 27.954600 9.391152 3.584053 13.839011 -1.515857 7.794275 -6.044311 -14.600406 1.295132 -18.284430 14.033155 6.239249 -20.114385 2.917856 7.515361 24.311030 -1.433400 6.082500 18.593200 7.814698 -7.014328 0.868337 -72.783987 14.237080 42.902803 23.279619 -34.555075 -7.254975 -0.101493 2.608288 0.122651 30.794142 32.970531 16.643200 -7.125000 0.000000 0.000000 -0.072500 63.783300 -0.033000 -10.264404 7.713584 2.515843 95.667184 -21.551438 25.773446 -19.482423 36.527167 -5.353931 -0.000582 -4.269928 -11.631459 -24.470973 -26.021348 9.171700 7.125000 0.000000 0.000000 5.233600 -53.238800 -1.062900 
-42.781998 17.489761 1.462534 -167.147225 74.564782 -161.516847 19.888496 3.070165 -1.900019 -36.960200 -30.265506 11.587855 -12.156983 -1.092553 0.185003 1.732205 -8.466431 -22.532810 0.928100 -6.137100 -17.182600 -24.619840 -3.647172 -3.562648 54.068798 23.957422 21.328173 14.709276 5.436034 -7.052947 -7.745818 -13.004208 -53.819271 -2.379600 -9.615600 27.740700 10.190480 3.381017 14.541977 -1.937831 7.945728 -6.387502 -16.406952 0.949006 -18.838303 14.557039 6.060769 -20.206975 3.333657 7.011799 24.397730 -1.265400 6.023300 18.584800 7.609571 -7.022211 0.886763 -71.034674 14.831538 44.101728 23.801534 -34.508658 -7.048621 -0.423148 2.483791 -0.235979 23.915520 29.540770 11.517900 -7.125000 0.000000 0.000000 -6.477500 58.773700 -2.186800 -10.299022 7.792769 2.533992 97.271856 -21.875407 25.059432 -19.461217 36.890273 -5.368008 -0.041174 -4.347073 -11.301498 -24.471419 -26.088099 9.157300 7.125000 0.000000 0.000000 5.258700 -53.225900 -1.066400 
-42.777159 17.489008 1.461674 -166.804164 74.694345 -161.087798 19.862492 3.047855 -1.936528 -36.809408 -30.157951 11.388736 -12.154852 -1.077354 0.166878 1.719085 -8.359158 -22.470885 0.848100 -5.873600 -16.418200 -24.663937 -3.639166 -3.539562 54.165713 24.181436 21.206838 14.740821 5.394076 -7.006963 -7.618158 -13.909755 -53.643693 -2.200000 -9.270700 26.645800 10.116606 3.426661 14.210044 -1.850068 7.899177 -6.279228 -16.047107 1.035208 -18.416844 14.544394 6.088739 -20.292492 3.138566 7.001094 24.228471 -1.413500 5.972300 18.509500 7.671053 -7.004222 0.890852 -71.359564 14.535794 43.890222 23.696660 -34.482847 -7.026035 -0.405783 2.497398 -0.307219 24.210008 29.586263 11.671600 -7.125000 0.000000 0.000000 -6.183500 58.865600 -2.100700 -10.323661 7.741279 2.515285 96.918436 -21.543701 25.364750 -19.524687 36.897123 -5.380727 -0.008855 -4.337660 -11.443974 -24.305390 -26.172619 9.132100 7.125000 0.000000 0.000000 5.434800 -53.294900 -1.111400 
-42.770385 17.488578 1.462104 -166.269347 74.792909 -160.482569 19.818871 3.027603 -1.980295 -36.590696 -30.083731 11.279889 -12.125332 -1.044283 0.233589 1.713589 -8.753930 -22.387303 0.719500 -5.420500 -15.111900 -24.717332 -3.643155 -3.515450 54.338716 24.386290 21.112587 14.760685 5.349535 -6.953502 -7.548719 -14.304762 -53.501892 -2.116800 -9.105300 26.125300 10.325891 3.441146 14.095908 -1.825360 7.911567 -6.134229 -16.154240 1.018240 -18.439365 14.584009 6.093499 -20.277707 3.033795 6.973749 24.156750 -1.492800 5.945800 18.469600 7.685057 -7.022568 0.908124 -71.439521 14.444364 43.718988 23.586324 -34.395655 -6.998136 -0.398225 2.505931 -0.223583 24.352911 29.827371 11.834800 -7.125000 0.000000 0.000000 -6.131700 59.135600 -2.122700 -10.314189 7.734487 2.527913 96.879828 -21.500647 25.525916 -19.627523 36.988528 -5.407208 0.015245 -4.336977 -11.521638 -24.177123 -26.223865 9.104000 7.125000 0.000000 0.000000 5.563500 -53.325200 -1.142000 
